<svg width="1280" height="720" viewBox="0 0 1280 720" fill="none" xmlns="http://www.w3.org/2000/svg">
<path fill-rule="evenodd" clip-rule="evenodd" d="M167.146 573.316C196.464 568.319 225.268 546.201 252.816 557.951C280.343 569.692 283.403 607.802 302.615 631.098C326.815 660.441 377.68 673.363 379.428 711.472C381.135 748.698 333.446 765.456 310.081 793.911C286.572 822.542 278.802 874.223 242.257 878.529C204.697 882.954 183.815 833.459 151.831 812.557C127.899 796.917 99.279 791.987 78.9042 771.773C53.3863 746.457 22.8783 719.311 21.4684 683.225C20.0298 646.404 42.8072 610.655 71.7557 588.814C98.1934 568.868 134.595 578.865 167.146 573.316ZM192.124 574.378C221.442 569.381 250.246 547.263 277.793 559.013C305.32 570.754 308.38 608.864 327.593 632.16C351.792 661.503 402.658 674.425 404.405 712.535C406.112 749.761 358.423 766.518 335.059 794.973C311.549 823.605 303.78 875.285 267.234 879.591C229.675 884.016 208.792 834.522 176.808 813.619C152.876 797.979 124.256 793.049 103.882 772.836C78.3637 747.519 47.8557 720.373 46.4458 684.287C45.0072 647.466 67.7846 611.717 96.7331 589.876C123.171 569.93 159.572 579.927 192.124 574.378Z" fill="#7083FF"/>
<path fill-rule="evenodd" clip-rule="evenodd" d="M1181.93 587.541C1206.51 580.003 1235.13 585.066 1257.11 597.879C1279.24 610.771 1296.35 632.779 1300.95 656.904C1305.25 679.463 1284.15 698.821 1280.68 721.506C1277.21 744.171 1292.75 768.904 1280.74 788.814C1268.43 809.232 1242.06 817.793 1218.32 824.927C1194.16 832.184 1168.61 835.597 1143.98 829.903C1118.69 824.055 1095.98 810.761 1078.48 792.593C1060.72 774.155 1047.79 751.452 1044.59 726.733C1041.42 702.294 1043.14 674.151 1060.78 655.992C1078.02 638.254 1110.86 648.381 1132.75 636.012C1153.51 624.279 1158.9 594.6 1181.93 587.541Z" fill="#8D93FA"/>
<path fill-rule="evenodd" clip-rule="evenodd" d="M1207.45 617.78C1232.04 610.243 1260.65 615.306 1282.64 628.119C1304.76 641.011 1321.88 663.018 1326.48 687.143C1330.78 709.702 1309.68 729.06 1306.2 751.745C1302.73 774.41 1318.28 799.143 1306.27 819.054C1293.96 839.472 1267.59 848.033 1243.85 855.166C1219.69 862.424 1194.13 865.836 1169.51 860.142C1144.22 854.295 1121.51 841 1104.01 822.832C1086.25 804.394 1073.32 781.692 1070.12 756.973C1066.95 732.533 1068.67 704.391 1086.31 686.232C1103.55 668.493 1136.38 678.62 1158.27 666.252C1179.04 654.518 1184.43 624.84 1207.45 617.78Z" fill="#7083FF"/>
<path fill-rule="evenodd" clip-rule="evenodd" d="M6.57777 -101.365C35.7014 -99.2642 68.3521 -113.5 91.8588 -95.9491C115.348 -78.4115 109.324 -41.5996 122.175 -15.0551C138.362 18.3795 183.824 42.4755 176.549 78.9807C169.443 114.639 120.045 119.396 91.0936 140.902C61.9624 162.542 42.4297 209.683 6.57777 205.243C-30.2693 200.679 -38.5659 148.93 -64.1547 121.676C-83.3018 101.282 -109.431 89.9419 -124.113 66.0459C-142.502 36.1181 -165.218 3.2933 -158.096 -31.2158C-150.829 -66.4282 -120.726 -94.9807 -88.0023 -108.92C-58.1171 -121.651 -25.7583 -103.697 6.57777 -101.365Z" fill="#7083FF"/>
<path fill-rule="evenodd" clip-rule="evenodd" d="M347.223 224.512C366.866 227.875 389.999 219.651 404.792 233.828C419.574 247.995 413.017 274.228 419.969 294.232C428.726 319.43 457.996 339.73 450.61 365.661C443.394 390.991 409.52 391.302 388.413 405.016C367.175 418.816 350.75 451.661 326.693 446.18C301.968 440.547 299.797 402.609 284.239 381.284C272.598 365.328 255.608 355.474 247.234 337.268C236.747 314.467 223.513 289.297 230.662 264.799C237.957 239.801 260.318 221.065 283.48 213.06C304.634 205.748 325.413 220.778 347.223 224.512Z" fill="#7083FF"/>
<path fill-rule="evenodd" clip-rule="evenodd" d="M-16.9861 -118.923C12.1376 -116.823 44.7882 -131.059 68.295 -113.508C91.7837 -95.9699 85.7597 -59.158 98.6109 -32.6135C114.798 0.821124 160.26 24.9172 152.985 61.4223C145.879 97.0809 96.4809 101.838 67.5297 123.344C38.3985 144.984 18.8659 192.124 -16.9861 187.684C-53.8331 183.121 -62.1298 131.372 -87.7186 104.117C-106.866 83.7241 -132.995 72.3835 -147.677 48.4875C-166.066 18.5597 -188.782 -14.2651 -181.66 -48.7742C-174.393 -83.9866 -144.289 -112.539 -111.566 -126.479C-81.681 -139.209 -49.3221 -121.255 -16.9861 -118.923Z" fill="#97A5FF"/>
<path fill-rule="evenodd" clip-rule="evenodd" d="M325.383 212.1C345.026 215.463 368.159 207.239 382.952 221.416C397.734 235.583 391.176 261.815 398.129 281.82C406.886 307.017 436.156 327.317 428.769 353.249C421.554 378.579 387.679 378.889 366.573 392.604C345.335 406.404 328.909 439.248 304.852 433.768C280.128 428.135 277.957 390.196 262.399 368.872C250.758 352.916 233.768 343.062 225.394 324.856C214.906 302.054 201.673 276.884 208.822 252.386C216.116 227.389 238.477 208.653 261.64 200.648C282.793 193.336 303.573 208.366 325.383 212.1Z" fill="#97A5FF"/>
<path fill-rule="evenodd" clip-rule="evenodd" d="M1321.25 -29.1801C1350.37 -27.0797 1383.02 -41.3158 1406.53 -23.7646C1430.02 -6.22697 1423.99 30.5849 1436.84 57.1294C1453.03 90.564 1498.49 114.66 1491.22 151.165C1484.11 186.824 1434.71 191.581 1405.76 213.087C1376.63 234.727 1357.1 281.867 1321.25 277.427C1284.4 272.864 1276.1 221.114 1250.51 193.86C1231.37 173.467 1205.24 162.126 1190.56 138.23C1172.17 108.303 1149.45 75.4778 1156.57 40.9687C1163.84 5.75635 1193.94 -22.7962 1226.67 -36.7359C1256.55 -49.4665 1288.91 -31.5121 1321.25 -29.1801ZM1293.76 -26.2537C1322.88 -24.1533 1355.53 -38.3894 1379.04 -20.8382C1402.53 -3.30058 1396.5 33.5113 1409.35 60.0558C1425.54 93.4904 1471 117.586 1463.73 154.092C1456.62 189.75 1407.22 194.507 1378.27 216.013C1349.14 237.653 1329.61 284.794 1293.76 280.354C1256.91 275.79 1248.61 224.041 1223.02 196.787C1203.88 176.393 1177.75 165.053 1163.06 141.157C1144.68 111.229 1121.96 78.4042 1129.08 43.8951C1136.35 8.68274 1166.45 -19.8698 1199.18 -33.8095C1229.06 -46.5401 1261.42 -28.5857 1293.76 -26.2537Z" fill="#7083FF"/>
</svg>
